<svg xmlns="http://www.w3.org/2000/svg" viewBox="0 0 1200 720" role="img" aria-labelledby="title desc">
  <title id="title">Building Calm Interfaces illustration</title>
  <desc id="desc">A quiet interface with a few well-spaced cards.</desc>
  <rect width="1200" height="720" fill="#f4f1ea"/>
  <rect x="56" y="56" width="1088" height="608" rx="36" fill="rgba(255,255,255,0.72)" stroke="rgba(21,25,34,0.16)"/>
  <rect x="124" y="138" width="428" height="196" rx="24" fill="rgba(255,255,255,0.92)" stroke="rgba(21,25,34,0.12)"/>
  <rect x="648" y="138" width="428" height="116" rx="24" fill="rgba(255,255,255,0.92)" stroke="rgba(21,25,34,0.12)"/>
  <rect x="648" y="290" width="428" height="216" rx="24" fill="rgba(255,255,255,0.92)" stroke="rgba(21,25,34,0.12)"/>
  <g fill="#16181d">
    <rect x="164" y="182" width="192" height="18" rx="9"/>
    <rect x="164" y="222" width="290" height="12" rx="6" opacity="0.72"/>
    <rect x="164" y="252" width="246" height="12" rx="6" opacity="0.46"/>
    <rect x="688" y="178" width="156" height="14" rx="7"/>
    <rect x="688" y="210" width="268" height="10" rx="5" opacity="0.5"/>
    <rect x="688" y="342" width="136" height="14" rx="7"/>
    <rect x="688" y="378" width="318" height="10" rx="5" opacity="0.58"/>
    <rect x="688" y="408" width="292" height="10" rx="5" opacity="0.42"/>
  </g>
  <circle cx="486" cy="186" r="18" fill="#4c8cf5" opacity="0.88"/>
  <circle cx="1008" cy="178" r="12" fill="#cbd6ef"/>
  <circle cx="1042" cy="178" r="12" fill="#d8dfec"/>
  <circle cx="1076" cy="178" r="12" fill="#e1e6ef"/>
</svg>
